<?xml version="1.0" encoding="utf-8"?>
<!-- Generator: Adobe Illustrator 16.0.0, SVG Export Plug-In . SVG Version: 6.00 Build 0)  -->
<!DOCTYPE svg PUBLIC "-//W3C//DTD SVG 1.1//EN" "http://www.w3.org/Graphics/SVG/1.1/DTD/svg11.dtd">
<svg version="1.1" id="Layer_1" xmlns="http://www.w3.org/2000/svg" xmlns:xlink="http://www.w3.org/1999/xlink" x="0px" y="0px"
	 width="130px" height="130px" viewBox="0 0 130 130" enable-background="new 0 0 130 130" xml:space="preserve">
<g>
	<polygon fill="#58938C" points="65.119,38.923 1.117,75.88 65.119,112.83 129.117,75.88 	"/>
	<polygon fill="#44756E" points="14.128,68.367 14.128,83.393 65.119,112.83 99.295,93.099 99.295,60.689 27.423,60.689 	"/>
	<g>
		<g>
			<polygon fill="#7ABCB8" points="38.975,68.802 38.975,85.414 87.888,57.172 87.888,40.56 			"/>
			<polygon fill="#65A59F" points="14.516,71.293 28.638,79.446 38.974,85.414 38.974,68.802 14.516,54.68 			"/>
			<polygon fill="#BAE4E5" points="38.975,67.629 38.975,84.241 87.888,56 87.888,39.388 			"/>
			<polyline fill="#A4E0DE" points="87.888,39.388 38.975,67.629 38.975,84.241 			"/>
			<polygon fill="#0B7375" points="14.516,45.757 14.516,70.122 38.975,84.241 38.975,67.629 			"/>
			<polygon fill="#17A089" points="63.432,17.516 14.516,45.757 38.975,67.629 87.888,39.388 			"/>
			<polyline fill="#178C7B" points="63.432,17.516 14.516,45.757 38.975,67.629 			"/>
			<polygon fill="#9BCECE" points="14.516,70.12 28.638,78.274 38.974,84.241 38.974,67.629 14.516,53.508 			"/>
			<polyline fill="#7ABCB8" points="28.638,78.274 38.974,84.241 38.974,67.629 14.516,53.508 			"/>
		</g>
		<g>
			<g>
				<path fill="#1DB59B" d="M14.521,46.187c-0.135,0-0.267-0.069-0.341-0.195c-0.105-0.187-0.042-0.427,0.146-0.536L63.8,16.89
					c0.182-0.105,0.424-0.042,0.536,0.146c0.107,0.187,0.043,0.427-0.144,0.536L14.716,46.135
					C14.655,46.172,14.587,46.187,14.521,46.187z"/>
			</g>
			<g>
				<path fill="#1DB59B" d="M15.85,47.398c-0.135,0-0.267-0.071-0.341-0.197c-0.105-0.188-0.042-0.427,0.145-0.536L65.13,18.102
					c0.183-0.106,0.424-0.046,0.536,0.144c0.107,0.187,0.042,0.427-0.145,0.536L16.045,47.345
					C15.984,47.38,15.916,47.398,15.85,47.398z"/>
			</g>
			<g>
				<path fill="#1DB59B" d="M17.18,48.606c-0.135,0-0.267-0.069-0.341-0.195c-0.107-0.187-0.043-0.427,0.144-0.536L66.459,19.31
					c0.182-0.105,0.426-0.045,0.536,0.146c0.107,0.187,0.042,0.427-0.144,0.536L17.375,48.555
					C17.314,48.591,17.246,48.606,17.18,48.606z"/>
			</g>
			<g>
				<path fill="#1DB59B" d="M18.509,49.817c-0.135,0-0.267-0.071-0.341-0.196c-0.107-0.188-0.042-0.427,0.144-0.535l49.477-28.565
					c0.183-0.107,0.425-0.045,0.536,0.145c0.106,0.186,0.043,0.427-0.144,0.536L18.704,49.765
					C18.644,49.8,18.575,49.817,18.509,49.817z"/>
			</g>
			<g>
				<path fill="#1DB59B" d="M19.838,51.026c-0.135,0-0.266-0.07-0.34-0.195c-0.108-0.187-0.043-0.428,0.144-0.536L69.118,21.73
					c0.183-0.105,0.424-0.047,0.536,0.145c0.105,0.188,0.042,0.427-0.145,0.536L20.033,50.975
					C19.973,51.011,19.905,51.026,19.838,51.026z"/>
			</g>
			<g>
				<path fill="#1DB59B" d="M21.168,52.237c-0.135,0-0.267-0.071-0.341-0.196c-0.107-0.188-0.042-0.428,0.144-0.536L70.447,22.94
					c0.182-0.106,0.426-0.045,0.536,0.146c0.106,0.185,0.042,0.426-0.146,0.534L21.363,52.185
					C21.303,52.22,21.234,52.237,21.168,52.237z"/>
			</g>
			<g>
				<path fill="#1DB59B" d="M22.496,53.445c-0.134,0-0.267-0.068-0.34-0.195c-0.107-0.186-0.042-0.427,0.145-0.535L71.777,24.15
					c0.182-0.107,0.424-0.044,0.535,0.144c0.106,0.188,0.043,0.428-0.145,0.536L22.692,53.395
					C22.632,53.431,22.563,53.445,22.496,53.445z"/>
			</g>
			<g>
				<path fill="#1DB59B" d="M23.825,54.657c-0.135,0-0.267-0.071-0.339-0.197c-0.107-0.186-0.043-0.427,0.144-0.536L73.104,25.36
					c0.185-0.106,0.426-0.046,0.536,0.144c0.107,0.187,0.044,0.428-0.144,0.536L24.021,54.605
					C23.96,54.639,23.894,54.657,23.825,54.657z"/>
			</g>
			<g>
				<path fill="#1DB59B" d="M25.154,55.865c-0.135,0-0.267-0.069-0.339-0.195c-0.107-0.186-0.042-0.427,0.144-0.536L74.435,26.57
					c0.183-0.107,0.427-0.047,0.536,0.144c0.107,0.188,0.044,0.427-0.145,0.536L25.352,55.814
					C25.289,55.851,25.223,55.865,25.154,55.865z"/>
			</g>
			<g>
				<path fill="#1DB59B" d="M26.484,57.077c-0.135,0-0.267-0.071-0.34-0.197c-0.107-0.187-0.044-0.427,0.145-0.536L75.764,27.78
					c0.184-0.107,0.424-0.046,0.536,0.144c0.107,0.187,0.044,0.427-0.144,0.536L26.681,57.025
					C26.619,57.059,26.553,57.077,26.484,57.077z"/>
			</g>
			<g>
				<path fill="#1DB59B" d="M27.813,58.287c-0.135,0-0.267-0.071-0.339-0.195c-0.107-0.188-0.044-0.429,0.144-0.536L77.094,28.99
					c0.185-0.106,0.424-0.047,0.535,0.144c0.107,0.188,0.044,0.427-0.144,0.536L28.011,58.233
					C27.948,58.271,27.882,58.287,27.813,58.287z"/>
			</g>
			<g>
				<path fill="#1DB59B" d="M29.143,59.496c-0.135,0-0.266-0.069-0.339-0.196c-0.107-0.187-0.044-0.427,0.144-0.536L78.423,30.2
					c0.183-0.108,0.425-0.046,0.536,0.144c0.107,0.187,0.042,0.429-0.145,0.536L29.34,59.445
					C29.277,59.479,29.211,59.496,29.143,59.496z"/>
			</g>
			<g>
				<path fill="#1DB59B" d="M30.473,60.706c-0.135,0-0.267-0.071-0.34-0.195c-0.107-0.188-0.043-0.427,0.145-0.536l49.475-28.565
					c0.182-0.107,0.424-0.044,0.536,0.145c0.107,0.188,0.042,0.427-0.144,0.536L30.669,60.653
					C30.607,60.689,30.541,60.706,30.473,60.706z"/>
			</g>
			<g>
				<path fill="#1DB59B" d="M31.802,61.916c-0.135,0-0.267-0.069-0.341-0.196c-0.105-0.187-0.042-0.427,0.146-0.536l49.476-28.564
					c0.183-0.105,0.424-0.045,0.535,0.145c0.108,0.186,0.043,0.428-0.144,0.536L31.997,61.864
					C31.937,61.898,31.868,61.916,31.802,61.916z"/>
			</g>
			<g>
				<path fill="#1DB59B" d="M33.132,63.127c-0.135,0-0.267-0.072-0.341-0.196c-0.106-0.188-0.043-0.429,0.144-0.536l49.477-28.565
					c0.182-0.107,0.426-0.045,0.536,0.144c0.107,0.188,0.042,0.428-0.144,0.536L33.327,63.073
					C33.267,63.109,33.198,63.127,33.132,63.127z"/>
			</g>
			<g>
				<path fill="#1DB59B" d="M34.461,64.336c-0.135,0-0.267-0.069-0.341-0.197c-0.107-0.186-0.042-0.427,0.144-0.535L83.74,35.039
					c0.182-0.105,0.424-0.044,0.536,0.144c0.107,0.187,0.043,0.429-0.144,0.536L34.656,64.284
					C34.596,64.319,34.527,64.336,34.461,64.336z"/>
			</g>
			<g>
				<path fill="#1DB59B" d="M35.79,65.546c-0.135,0-0.267-0.071-0.341-0.195c-0.107-0.188-0.042-0.427,0.145-0.536L85.07,36.249
					c0.183-0.104,0.424-0.046,0.536,0.144c0.107,0.188,0.042,0.428-0.145,0.536L35.985,65.493
					C35.925,65.529,35.857,65.546,35.79,65.546z"/>
			</g>
			<g>
				<path fill="#1DB59B" d="M37.12,66.756c-0.135,0-0.267-0.07-0.341-0.197c-0.107-0.187-0.043-0.427,0.144-0.536l49.477-28.563
					c0.182-0.106,0.426-0.046,0.536,0.146c0.107,0.185,0.042,0.427-0.144,0.536L37.315,66.704
					C37.255,66.739,37.187,66.756,37.12,66.756z"/>
			</g>
			<g>
				<path fill="#1DB59B" d="M38.449,67.966c-0.135,0-0.267-0.071-0.341-0.195c-0.107-0.188-0.042-0.428,0.144-0.536L87.729,38.67
					c0.182-0.108,0.425-0.045,0.536,0.143c0.106,0.188,0.043,0.427-0.144,0.536L38.645,67.912
					C38.584,67.949,38.516,67.966,38.449,67.966z"/>
			</g>
		</g>
		<g>
			<polygon fill="#6FAEDD" points="85.363,42.563 85.363,58.455 51.276,78.134 51.276,62.246 			"/>
			<polygon fill="#3AA3D8" points="84.727,58.161 51.276,77.473 51.276,62.246 84.727,42.935 			"/>
			<polyline fill="#1D96CC" points="51.276,77.473 51.276,62.246 84.727,42.935 			"/>
			<polygon opacity="0.6" fill="#3AA3D8" points="75.692,63.912 60.947,72.422 60.947,56.845 75.692,48.334 			"/>
			<polygon opacity="0.6" fill="#3AA3D8" points="68.32,52.564 68.843,52.265 68.843,67.84 68.32,68.146 			"/>
		</g>
		<g>
			<polygon fill="#7ABCB8" points="73.794,90.552 73.794,91.337 99.508,76.49 99.508,75.704 			"/>
			<polygon fill="#65A59F" points="51.279,77.538 51.279,78.324 73.794,91.337 73.794,90.552 			"/>
			<polygon fill="#78BAB2" points="76.995,62.69 51.279,77.538 73.794,90.552 99.508,75.704 			"/>
			<polyline fill="#83C6C0" points="51.279,77.538 73.794,90.552 99.508,75.704 			"/>
		</g>
		<g>
			<g>
				<polygon fill="#A7D1D3" points="96.148,71.144 97.829,72.114 97.829,76.68 96.148,75.709 				"/>
				<polyline fill="#91BBBF" points="96.148,71.144 97.829,72.114 97.829,76.68 				"/>
				<polygon fill="#6B878E" points="99.508,71.144 97.829,72.114 97.829,76.68 99.508,75.709 				"/>
				<polyline fill="#527075" points="99.508,71.144 97.829,72.114 97.829,76.68 				"/>
				<polygon fill="#719499" points="97.829,70.173 99.508,71.144 97.829,72.114 96.148,71.144 				"/>
				<polyline fill="#5C7E7F" points="99.508,71.144 97.829,72.114 96.148,71.144 				"/>
			</g>
			<g>
				<g>
					<polygon fill="#527075" points="97.841,71.854 96.59,71.132 97.841,70.408 99.093,71.132 					"/>
					<polyline fill="#425D60" points="97.841,70.408 99.093,71.132 97.841,71.854 					"/>
					<g>
						<polygon fill="#8CADB5" points="97.31,61.011 97.843,61.318 97.843,71.382 97.31,71.074 						"/>
						<polygon fill="#7C949B" points="98.372,61.011 97.843,61.318 97.843,71.382 98.372,71.074 						"/>
						<polygon fill="#7C949B" points="97.31,61.011 97.31,62.012 97.84,62.319 97.84,61.718 97.84,61.715 97.84,61.316 						"/>
						<polygon fill="#547277" points="97.843,61.715 97.843,61.718 97.843,62.319 98.372,62.012 98.372,61.011 97.843,61.316 						
							"/>
					</g>
				</g>
			</g>
		</g>
		<g>
			<g>
				<polygon fill="#A7D1D3" points="72.13,85.016 73.811,85.986 73.811,90.552 72.13,89.581 				"/>
				<polyline fill="#91BBBF" points="72.13,85.016 73.811,85.986 73.811,90.552 				"/>
				<polygon fill="#6B878E" points="75.49,85.016 73.811,85.986 73.811,90.552 75.49,89.581 				"/>
				<polyline fill="#527075" points="75.49,85.016 73.811,85.986 73.811,90.552 				"/>
				<polygon fill="#719499" points="73.811,84.045 75.49,85.016 73.811,85.986 72.13,85.016 				"/>
				<polyline fill="#5C7E7F" points="75.49,85.016 73.811,85.986 72.13,85.016 				"/>
			</g>
			<g>
				<g>
					<polygon fill="#527075" points="73.822,85.726 72.572,85.003 73.822,84.279 75.075,85.003 					"/>
					<polyline fill="#425D60" points="73.822,84.279 75.075,85.003 73.822,85.726 					"/>
					<g>
						<polygon fill="#8CADB5" points="73.291,70.23 73.824,70.538 73.824,85.253 73.291,84.945 						"/>
						<polygon fill="#7C949B" points="74.354,70.23 73.824,70.538 73.824,85.253 74.354,84.945 						"/>
						<polygon fill="#7C949B" points="73.291,70.23 73.291,71.231 73.821,71.539 73.821,70.938 73.821,70.935 73.821,70.536 						
							"/>
						<polygon fill="#547277" points="73.824,70.935 73.824,70.938 73.824,71.539 74.354,71.231 74.354,70.23 73.824,70.536 						
							"/>
					</g>
				</g>
				<g>
					<g>
						<polyline fill="#444738" points="72.242,69.081 72.242,68.478 73.808,69.383 						"/>
						<path fill="#A2CE02" d="M73.808,69.383"/>
					</g>
					<g>
						<polygon fill="#8CADB5" points="72.242,68.478 72.242,69.081 72.242,69.684 73.808,70.591 73.808,69.987 73.808,69.985 
							73.808,69.383 						"/>
						<polyline fill="#779AA0" points="73.808,70.591 73.808,69.987 73.808,69.985 73.808,69.383 72.242,68.478 						"/>
						<path fill="#C49427" d="M73.808,69.985"/>
						<polygon fill="#7C949B" points="73.811,69.383 73.811,69.985 73.811,69.987 73.811,70.591 75.375,69.684 75.375,69.081 
							75.375,68.478 						"/>
						<polyline fill="#6B878E" points="75.375,69.081 75.375,68.478 73.811,69.383 73.811,69.985 73.811,69.987 73.811,70.591 
													"/>
					</g>
					<g>
						<path fill="#C49427" d="M73.808,70.59"/>
					</g>
					<polygon fill="#9EC6CC" points="72.242,68.478 73.808,69.383 74.436,69.021 75.376,68.478 73.811,67.573 					"/>
				</g>
			</g>
		</g>
		<g>
			<g>
				<polygon fill="#045B5B" points="73.794,75.384 73.794,76.169 99.508,61.322 99.508,60.537 				"/>
				<polygon fill="#0B7375" points="51.279,62.37 51.279,63.156 73.794,76.169 73.794,75.384 				"/>
				<polygon fill="#178C7B" points="76.995,47.522 51.279,62.37 73.794,75.384 99.508,60.537 				"/>
				<polyline fill="#117A68" points="51.279,62.37 73.794,75.384 99.508,60.537 				"/>
			</g>
			<g>
				<g>
					<path fill="#1DB59B" d="M50.502,62.986c-0.07,0-0.139-0.036-0.177-0.101c-0.056-0.098-0.022-0.223,0.074-0.279l27.192-15.699
						c0.094-0.055,0.219-0.024,0.278,0.076c0.055,0.097,0.021,0.221-0.076,0.278L50.604,62.96
						C50.572,62.978,50.537,62.986,50.502,62.986z"/>
				</g>
				<g>
					<path fill="#1DB59B" d="M51.52,63.573c-0.069,0-0.138-0.037-0.176-0.104c-0.056-0.097-0.022-0.221,0.074-0.278l27.191-15.698
						c0.095-0.055,0.221-0.022,0.278,0.074c0.056,0.099,0.022,0.223-0.074,0.279l-27.19,15.699
						C51.591,63.563,51.557,63.573,51.52,63.573z"/>
				</g>
				<g>
					<path fill="#1DB59B" d="M52.539,64.159c-0.07,0-0.138-0.038-0.176-0.102c-0.056-0.099-0.022-0.222,0.074-0.279l27.19-15.699
						c0.096-0.054,0.222-0.023,0.278,0.076c0.057,0.097,0.023,0.222-0.074,0.278l-27.19,15.698
						C52.61,64.149,52.575,64.159,52.539,64.159z"/>
				</g>
				<g>
					<path fill="#1DB59B" d="M53.558,64.745c-0.069,0-0.138-0.036-0.175-0.104c-0.057-0.097-0.023-0.221,0.074-0.278l27.19-15.698
						c0.095-0.054,0.221-0.023,0.278,0.074c0.056,0.098,0.022,0.223-0.074,0.279l-27.19,15.699
						C53.629,64.735,53.595,64.745,53.558,64.745z"/>
				</g>
				<g>
					<path fill="#1DB59B" d="M54.577,65.329c-0.069,0-0.138-0.036-0.176-0.102c-0.056-0.097-0.022-0.223,0.074-0.278l27.19-15.697
						c0.096-0.055,0.221-0.024,0.278,0.073c0.057,0.099,0.023,0.223-0.073,0.279L54.68,65.304
						C54.648,65.321,54.612,65.329,54.577,65.329z"/>
				</g>
				<g>
					<path fill="#1DB59B" d="M55.596,65.918c-0.069,0-0.138-0.039-0.175-0.104c-0.057-0.097-0.023-0.221,0.073-0.278l27.191-15.697
						c0.095-0.057,0.221-0.024,0.278,0.074c0.056,0.097,0.022,0.222-0.074,0.278L55.699,65.89
						C55.666,65.907,55.631,65.918,55.596,65.918z"/>
				</g>
				<g>
					<path fill="#1DB59B" d="M56.615,66.502c-0.069,0-0.138-0.037-0.178-0.103c-0.054-0.097-0.021-0.223,0.076-0.278l27.19-15.697
						c0.096-0.055,0.222-0.024,0.278,0.074c0.057,0.097,0.023,0.222-0.074,0.278L56.717,66.474
						C56.685,66.493,56.65,66.502,56.615,66.502z"/>
				</g>
				<g>
					<path fill="#1DB59B" d="M57.635,67.087c-0.07,0-0.139-0.036-0.178-0.102c-0.055-0.097-0.021-0.221,0.076-0.278l27.19-15.697
						c0.095-0.057,0.221-0.024,0.278,0.074c0.056,0.097,0.022,0.223-0.074,0.278L57.735,67.062
						C57.704,67.08,57.669,67.087,57.635,67.087z"/>
				</g>
				<g>
					<path fill="#1DB59B" d="M58.653,67.673c-0.069,0-0.138-0.036-0.177-0.102c-0.055-0.097-0.021-0.222,0.075-0.278l27.19-15.697
						c0.096-0.055,0.221-0.024,0.279,0.074c0.056,0.097,0.022,0.223-0.074,0.278L58.755,67.646
						C58.723,67.664,58.688,67.673,58.653,67.673z"/>
				</g>
				<g>
					<path fill="#1DB59B" d="M59.672,68.259c-0.069,0-0.139-0.036-0.177-0.101c-0.056-0.098-0.022-0.223,0.076-0.279l27.19-15.699
						c0.094-0.055,0.221-0.022,0.278,0.076c0.056,0.097,0.022,0.223-0.075,0.278L59.773,68.232
						C59.742,68.252,59.707,68.259,59.672,68.259z"/>
				</g>
				<g>
					<path fill="#1DB59B" d="M60.691,68.845c-0.069,0-0.14-0.036-0.177-0.101c-0.057-0.098-0.023-0.223,0.075-0.279l27.19-15.697
						c0.094-0.057,0.22-0.024,0.278,0.074c0.057,0.097,0.023,0.223-0.075,0.278l-27.19,15.698
						C60.761,68.836,60.727,68.845,60.691,68.845z"/>
				</g>
				<g>
					<path fill="#1DB59B" d="M61.711,69.432c-0.07,0-0.14-0.037-0.178-0.102c-0.056-0.098-0.022-0.223,0.074-0.279L88.8,53.352
						c0.094-0.054,0.22-0.022,0.278,0.076c0.055,0.097,0.021,0.221-0.076,0.278l-27.19,15.698
						C61.78,69.422,61.745,69.432,61.711,69.432z"/>
				</g>
				<g>
					<path fill="#1DB59B" d="M62.729,70.018c-0.071,0-0.14-0.037-0.177-0.102c-0.057-0.099-0.023-0.223,0.074-0.279l27.191-15.697
						c0.094-0.056,0.22-0.024,0.279,0.074c0.054,0.097,0.021,0.223-0.076,0.279L62.831,69.99
						C62.799,70.008,62.765,70.018,62.729,70.018z"/>
				</g>
				<g>
					<path fill="#1DB59B" d="M63.748,70.604c-0.07,0-0.139-0.037-0.177-0.102c-0.056-0.097-0.022-0.223,0.074-0.279l27.192-15.699
						c0.094-0.054,0.22-0.023,0.278,0.076c0.055,0.097,0.021,0.221-0.075,0.278L63.85,70.576
						C63.818,70.594,63.783,70.604,63.748,70.604z"/>
				</g>
				<g>
					<path fill="#1DB59B" d="M64.768,71.189c-0.071,0-0.14-0.036-0.177-0.104c-0.057-0.097-0.023-0.221,0.074-0.278l27.19-15.697
						c0.095-0.055,0.221-0.023,0.278,0.075c0.056,0.097,0.022,0.223-0.074,0.278l-27.19,15.698
						C64.837,71.18,64.803,71.189,64.768,71.189z"/>
				</g>
				<g>
					<path fill="#1DB59B" d="M65.787,71.775c-0.071,0-0.14-0.036-0.178-0.102c-0.056-0.097-0.022-0.223,0.074-0.278l27.19-15.699
						c0.096-0.055,0.222-0.024,0.278,0.075c0.057,0.097,0.023,0.221-0.074,0.278L65.889,71.748
						C65.856,71.766,65.821,71.775,65.787,71.775z"/>
				</g>
				<g>
					<path fill="#1DB59B" d="M66.805,72.361c-0.07,0-0.139-0.036-0.176-0.104c-0.057-0.097-0.023-0.221,0.074-0.278l27.19-15.697
						c0.095-0.055,0.221-0.023,0.278,0.074c0.056,0.098,0.022,0.223-0.074,0.278l-27.19,15.699
						C66.875,72.353,66.841,72.361,66.805,72.361z"/>
				</g>
				<g>
					<path fill="#1DB59B" d="M67.823,72.947c-0.069,0-0.138-0.038-0.176-0.102c-0.056-0.099-0.022-0.223,0.074-0.278l27.19-15.699
						c0.096-0.055,0.222-0.024,0.279,0.075c0.056,0.097,0.022,0.222-0.074,0.279L67.926,72.92
						C67.895,72.938,67.858,72.947,67.823,72.947z"/>
				</g>
				<g>
					<path fill="#1DB59B" d="M68.843,73.533c-0.07,0-0.138-0.036-0.176-0.103c-0.057-0.097-0.022-0.222,0.074-0.279l27.19-15.697
						c0.096-0.055,0.221-0.024,0.278,0.074c0.056,0.097,0.022,0.224-0.074,0.278l-27.19,15.699
						C68.914,73.524,68.877,73.533,68.843,73.533z"/>
				</g>
				<g>
					<path fill="#1DB59B" d="M69.861,74.117c-0.069,0-0.138-0.036-0.177-0.101c-0.055-0.098-0.021-0.223,0.075-0.279L96.95,58.04
						c0.096-0.055,0.222-0.024,0.279,0.074c0.056,0.099,0.022,0.223-0.074,0.28L69.963,74.092
						C69.933,74.11,69.896,74.117,69.861,74.117z"/>
				</g>
				<g>
					<path fill="#1DB59B" d="M70.881,74.705c-0.07,0-0.139-0.037-0.178-0.103c-0.055-0.098-0.021-0.222,0.076-0.279l27.19-15.696
						c0.095-0.057,0.221-0.025,0.278,0.073c0.057,0.097,0.022,0.223-0.074,0.278L70.982,74.678
						C70.95,74.696,70.915,74.705,70.881,74.705z"/>
				</g>
				<g>
					<path fill="#1DB59B" d="M71.899,75.29c-0.069,0-0.138-0.037-0.177-0.102c-0.055-0.098-0.021-0.223,0.075-0.279l27.19-15.697
						c0.096-0.055,0.222-0.024,0.279,0.074c0.056,0.099,0.022,0.223-0.074,0.278L72.001,75.263
						C71.969,75.282,71.935,75.29,71.899,75.29z"/>
				</g>
				<g>
					<path fill="#1DB59B" d="M72.919,75.877c-0.07,0-0.138-0.038-0.178-0.103c-0.056-0.097-0.021-0.222,0.076-0.279l27.19-15.697
						c0.094-0.056,0.221-0.024,0.278,0.074c0.056,0.097,0.022,0.223-0.075,0.278L73.02,75.85
						C72.988,75.868,72.953,75.877,72.919,75.877z"/>
				</g>
			</g>
		</g>
		<g>
			<polygon fill="#BAE4E5" points="74.312,61.418 98.264,47.591 98.264,60.689 74.312,74.518 			"/>
			<polyline fill="#A4E0DE" points="74.312,74.518 74.312,61.418 98.264,47.591 			"/>
			<polygon fill="#80C1BB" points="75.563,62.166 97.013,49.787 97.013,59.963 75.563,72.34 			"/>
			<polyline fill="#7ABCB8" points="75.563,72.34 75.563,62.166 97.013,49.787 			"/>
			<polygon fill="#BAE4E5" points="73.052,60.689 97.004,46.862 98.264,47.591 74.312,61.418 			"/>
			<polygon fill="#7ABCB8" points="73.052,60.689 74.312,61.418 74.312,74.518 73.052,73.791 			"/>
		</g>
		<polygon fill="#0B7375" points="77.699,64.474 79.387,63.5 79.387,61.299 81.531,60.06 81.531,62.262 83.1,61.356 83.1,64.267 
			81.531,65.172 81.531,67.375 79.387,68.613 79.387,66.41 77.699,67.386 		"/>
		<g>
			<g>
				<g>
					<polygon fill="#3AA3D8" points="17.301,67.188 20.609,69.098 20.609,61.021 17.301,59.11 					"/>
					<polygon fill="#2585CC" points="17.641,67.006 20.609,68.72 20.609,61.021 17.641,59.306 					"/>
					<polyline fill="#1676BF" points="20.609,68.72 20.609,61.021 17.641,59.306 					"/>
				</g>
				<g>
					<path fill="#A6D9ED" d="M20.609,61.168c-0.024,0-0.051-0.008-0.073-0.02l-3.31-1.911c-0.07-0.039-0.094-0.13-0.055-0.199
						c0.041-0.071,0.133-0.093,0.201-0.055l3.311,1.911c0.069,0.039,0.094,0.13,0.054,0.199
						C20.709,61.141,20.66,61.168,20.609,61.168z"/>
				</g>
				<g>
					<path fill="#A6D9ED" d="M20.609,64.968c-0.024,0-0.051-0.007-0.073-0.019l-3.31-1.911c-0.07-0.039-0.094-0.13-0.055-0.2
						c0.041-0.07,0.133-0.091,0.201-0.054l3.311,1.91c0.069,0.04,0.094,0.131,0.054,0.2C20.709,64.943,20.66,64.968,20.609,64.968z"
						/>
				</g>
				<g>
					<path fill="#A6D9ED" d="M20.609,65.709c-0.024,0-0.051-0.007-0.073-0.021l-3.31-1.908c-0.07-0.041-0.094-0.132-0.055-0.201
						c0.041-0.071,0.133-0.093,0.201-0.054l3.311,1.908c0.069,0.041,0.094,0.132,0.054,0.201
						C20.709,65.682,20.66,65.709,20.609,65.709z"/>
				</g>
				<g>
					<path fill="#A6D9ED" d="M20.609,66.448c-0.024,0-0.051-0.006-0.073-0.019l-3.31-1.91c-0.07-0.04-0.094-0.131-0.055-0.2
						c0.041-0.071,0.133-0.093,0.201-0.055l3.311,1.911c0.069,0.039,0.094,0.13,0.054,0.201
						C20.709,66.423,20.66,66.448,20.609,66.448z"/>
				</g>
				<g>
					<path fill="#A6D9ED" d="M20.609,67.19c-0.024,0-0.051-0.008-0.073-0.021l-3.31-1.909c-0.07-0.041-0.094-0.131-0.055-0.201
						c0.041-0.07,0.133-0.091,0.201-0.054l3.311,1.91c0.069,0.039,0.094,0.13,0.054,0.201C20.709,67.163,20.66,67.19,20.609,67.19z"
						/>
				</g>
				<g>
					<path fill="#A6D9ED" d="M20.609,67.929c-0.024,0-0.051-0.006-0.073-0.018L17.227,66c-0.07-0.039-0.094-0.13-0.055-0.2
						c0.041-0.072,0.133-0.091,0.201-0.054l3.311,1.909c0.069,0.041,0.094,0.132,0.054,0.201
						C20.709,67.902,20.66,67.929,20.609,67.929z"/>
				</g>
				<g>
					<path fill="#A6D9ED" d="M20.609,68.67c-0.024,0-0.051-0.008-0.073-0.021l-3.31-1.909c-0.07-0.041-0.094-0.132-0.055-0.201
						c0.041-0.069,0.133-0.091,0.201-0.055l3.311,1.911c0.069,0.039,0.094,0.13,0.054,0.2C20.709,68.644,20.66,68.67,20.609,68.67z"
						/>
				</g>
			</g>
			<g>
				<g>
					<polygon fill="#3AA3D8" points="24.62,71.424 27.93,73.332 27.93,65.255 24.62,63.346 					"/>
					<polygon fill="#2585CC" points="24.962,71.24 27.93,72.953 27.93,65.255 24.962,63.541 					"/>
					<polyline fill="#1676BF" points="27.93,72.953 27.93,65.255 24.962,63.541 					"/>
				</g>
				<g>
					<path fill="#A6D9ED" d="M27.93,65.402c-0.025,0-0.05-0.008-0.072-0.021l-3.311-1.909c-0.069-0.041-0.094-0.13-0.054-0.201
						c0.041-0.069,0.132-0.091,0.201-0.053l3.31,1.909c0.07,0.04,0.095,0.13,0.054,0.2C28.03,65.377,27.981,65.402,27.93,65.402z"/>
				</g>
				<g>
					<path fill="#A6D9ED" d="M27.93,69.204c-0.025,0-0.05-0.008-0.072-0.021l-3.311-1.907c-0.069-0.041-0.094-0.132-0.054-0.202
						c0.041-0.071,0.132-0.092,0.201-0.054l3.31,1.909c0.07,0.041,0.095,0.13,0.054,0.201C28.03,69.177,27.981,69.204,27.93,69.204z
						"/>
				</g>
				<g>
					<path fill="#A6D9ED" d="M27.93,69.943c-0.025,0-0.05-0.007-0.072-0.019l-3.311-1.911c-0.069-0.039-0.094-0.13-0.054-0.199
						c0.041-0.073,0.132-0.093,0.201-0.055l3.31,1.909c0.07,0.041,0.095,0.132,0.054,0.201C28.03,69.918,27.981,69.943,27.93,69.943
						z"/>
				</g>
				<g>
					<path fill="#A6D9ED" d="M27.93,70.684c-0.025,0-0.05-0.008-0.072-0.02l-3.311-1.91c-0.069-0.04-0.094-0.131-0.054-0.201
						c0.041-0.069,0.132-0.091,0.201-0.053l3.31,1.909c0.07,0.04,0.095,0.131,0.054,0.2C28.03,70.657,27.981,70.684,27.93,70.684z"
						/>
				</g>
				<g>
					<path fill="#A6D9ED" d="M27.93,71.424c-0.025,0-0.05-0.006-0.072-0.02l-3.311-1.909c-0.069-0.04-0.094-0.131-0.054-0.2
						c0.041-0.072,0.132-0.094,0.201-0.055l3.31,1.909c0.07,0.041,0.095,0.132,0.054,0.202C28.03,71.396,27.981,71.424,27.93,71.424
						z"/>
				</g>
				<g>
					<path fill="#A6D9ED" d="M27.93,72.164c-0.025,0-0.05-0.007-0.072-0.02l-3.311-1.909c-0.069-0.041-0.094-0.132-0.054-0.201
						c0.041-0.071,0.132-0.091,0.201-0.055l3.31,1.911c0.07,0.039,0.095,0.13,0.054,0.199C28.03,72.139,27.981,72.164,27.93,72.164z
						"/>
				</g>
				<g>
					<path fill="#A6D9ED" d="M27.93,72.904c-0.025,0-0.05-0.007-0.072-0.02l-3.311-1.909c-0.069-0.041-0.094-0.13-0.054-0.201
						c0.041-0.071,0.132-0.093,0.201-0.053l3.31,1.907c0.07,0.041,0.095,0.132,0.054,0.202C28.03,72.878,27.981,72.904,27.93,72.904
						z"/>
				</g>
			</g>
			<g>
				<g>
					<polygon fill="#3AA3D8" points="31.941,75.657 35.251,77.567 35.251,69.49 31.941,67.581 					"/>
					<polygon fill="#2585CC" points="32.283,75.476 35.251,77.188 35.251,69.49 32.283,67.774 					"/>
					<polyline fill="#1676BF" points="35.251,77.188 35.251,69.49 32.283,67.774 					"/>
				</g>
				<g>
					<path fill="#A6D9ED" d="M35.251,69.637c-0.025,0-0.05-0.006-0.074-0.02l-3.309-1.908c-0.071-0.04-0.094-0.131-0.054-0.202
						c0.041-0.071,0.131-0.093,0.201-0.053l3.309,1.909c0.071,0.041,0.096,0.13,0.055,0.201
						C35.352,69.61,35.301,69.637,35.251,69.637z"/>
				</g>
				<g>
					<path fill="#A6D9ED" d="M35.251,73.438c-0.025,0-0.05-0.006-0.074-0.018l-3.309-1.911c-0.071-0.039-0.094-0.13-0.054-0.2
						c0.041-0.072,0.131-0.092,0.201-0.055l3.309,1.91c0.071,0.041,0.096,0.132,0.055,0.201
						C35.352,73.41,35.301,73.438,35.251,73.438z"/>
				</g>
				<g>
					<path fill="#A6D9ED" d="M35.251,74.178c-0.025,0-0.05-0.007-0.074-0.02l-3.309-1.909c-0.071-0.04-0.094-0.132-0.054-0.201
						c0.041-0.069,0.131-0.091,0.201-0.055l3.309,1.911c0.071,0.039,0.096,0.13,0.055,0.2
						C35.352,74.152,35.301,74.178,35.251,74.178z"/>
				</g>
				<g>
					<path fill="#A6D9ED" d="M35.251,74.919c-0.025,0-0.05-0.006-0.074-0.02l-3.309-1.91c-0.071-0.039-0.094-0.13-0.054-0.201
						c0.041-0.071,0.131-0.092,0.201-0.053l3.309,1.908c0.071,0.042,0.096,0.131,0.055,0.202
						C35.352,74.892,35.301,74.919,35.251,74.919z"/>
				</g>
				<g>
					<path fill="#A6D9ED" d="M35.251,75.659c-0.025,0-0.05-0.008-0.074-0.02l-3.309-1.911c-0.071-0.039-0.094-0.13-0.054-0.2
						c0.041-0.071,0.131-0.091,0.201-0.055l3.309,1.911c0.071,0.04,0.096,0.131,0.055,0.201
						C35.352,75.634,35.301,75.659,35.251,75.659z"/>
				</g>
				<g>
					<path fill="#A6D9ED" d="M35.251,76.399c-0.025,0-0.05-0.008-0.074-0.021l-3.309-1.907c-0.071-0.041-0.094-0.132-0.054-0.201
						c0.041-0.071,0.131-0.093,0.201-0.054l3.309,1.908c0.071,0.041,0.096,0.132,0.055,0.201
						C35.352,76.372,35.301,76.399,35.251,76.399z"/>
				</g>
				<g>
					<path fill="#A6D9ED" d="M35.251,77.139c-0.025,0-0.05-0.006-0.074-0.019l-3.309-1.911c-0.071-0.039-0.094-0.13-0.054-0.199
						c0.041-0.071,0.131-0.092,0.201-0.055l3.309,1.911c0.071,0.039,0.096,0.13,0.055,0.199
						C35.352,77.112,35.301,77.139,35.251,77.139z"/>
				</g>
			</g>
		</g>
	</g>
</g>
</svg>
